<?xml version="1.0" encoding="UTF-8" standalone="no"?>
<!DOCTYPE svg PUBLIC "-//W3C//DTD SVG 1.1//EN"
 "http://www.w3.org/Graphics/SVG/1.1/DTD/svg11.dtd">
<!-- Generated by graphviz version 2.36.0 (20140111.2315)
 -->
<!-- Title: peyotldep Pages: 1 -->
<svg width="420pt" height="404pt"
 viewBox="0.00 0.00 419.75 404.00" xmlns="http://www.w3.org/2000/svg" xmlns:xlink="http://www.w3.org/1999/xlink">
<g id="graph0" class="graph" transform="scale(1 1) rotate(0) translate(4 400)">
<title>peyotldep</title>
<polygon fill="white" stroke="none" points="-4,4 -4,-400 415.748,-400 415.748,4 -4,4"/>
<!-- api -->
<g id="node1" class="node"><title>api</title>
<ellipse fill="none" stroke="black" cx="267.748" cy="-306" rx="27" ry="18"/>
<text text-anchor="middle" x="267.748" y="-302.3" font-family="Times,serif" font-size="14.00">api</text>
</g>
<!-- phylesystem -->
<g id="node2" class="node"><title>phylesystem</title>
<ellipse fill="none" stroke="black" cx="270.748" cy="-234" rx="55.3682" ry="18"/>
<text text-anchor="middle" x="270.748" y="-230.3" font-family="Times,serif" font-size="14.00">phylesystem</text>
</g>
<!-- api&#45;&gt;phylesystem -->
<g id="edge1" class="edge"><title>api&#45;&gt;phylesystem</title>
<path fill="none" stroke="black" d="M268.49,-287.697C268.821,-279.983 269.218,-270.712 269.586,-262.112"/>
<polygon fill="black" stroke="black" points="273.084,-262.245 270.015,-252.104 266.09,-261.945 273.084,-262.245"/>
</g>
<!-- nexson_validation -->
<g id="node9" class="node"><title>nexson_validation</title>
<ellipse fill="none" stroke="black" cx="249.748" cy="-162" rx="75.0904" ry="18"/>
<text text-anchor="middle" x="249.748" y="-158.3" font-family="Times,serif" font-size="14.00">nexson_validation</text>
</g>
<!-- phylesystem&#45;&gt;nexson_validation -->
<g id="edge10" class="edge"><title>phylesystem&#45;&gt;nexson_validation</title>
<path fill="none" stroke="black" d="M265.665,-216.055C263.327,-208.261 260.495,-198.822 257.872,-190.079"/>
<polygon fill="black" stroke="black" points="261.157,-188.848 254.931,-180.275 254.452,-190.859 261.157,-188.848"/>
</g>
<!-- external -->
<g id="node3" class="node"><title>external</title>
<ellipse fill="none" stroke="black" cx="78.7484" cy="-234" rx="38.4949" ry="18"/>
<text text-anchor="middle" x="78.7484" y="-230.3" font-family="Times,serif" font-size="14.00">external</text>
</g>
<!-- manip -->
<g id="node4" class="node"><title>manip</title>
<ellipse fill="none" stroke="black" cx="90.7484" cy="-162" rx="33.2209" ry="18"/>
<text text-anchor="middle" x="90.7484" y="-158.3" font-family="Times,serif" font-size="14.00">manip</text>
</g>
<!-- external&#45;&gt;manip -->
<g id="edge2" class="edge"><title>external&#45;&gt;manip</title>
<path fill="none" stroke="black" d="M81.7147,-215.697C83.0371,-207.983 84.6263,-198.712 86.1005,-190.112"/>
<polygon fill="black" stroke="black" points="89.5762,-190.552 87.8162,-180.104 82.6768,-189.369 89.5762,-190.552"/>
</g>
<!-- nexson_syntax -->
<g id="node7" class="node"><title>nexson_syntax</title>
<ellipse fill="none" stroke="black" cx="102.748" cy="-90" rx="63.0666" ry="18"/>
<text text-anchor="middle" x="102.748" y="-86.3" font-family="Times,serif" font-size="14.00">nexson_syntax</text>
</g>
<!-- manip&#45;&gt;nexson_syntax -->
<g id="edge5" class="edge"><title>manip&#45;&gt;nexson_syntax</title>
<path fill="none" stroke="black" d="M93.6533,-144.055C94.9749,-136.346 96.5723,-127.027 98.0574,-118.364"/>
<polygon fill="black" stroke="black" points="101.547,-118.723 99.7869,-108.275 94.6475,-117.54 101.547,-118.723"/>
</g>
<!-- gcmdr -->
<g id="node5" class="node"><title>gcmdr</title>
<ellipse fill="none" stroke="black" cx="171.748" cy="-378" rx="33.1991" ry="18"/>
<text text-anchor="middle" x="171.748" y="-374.3" font-family="Times,serif" font-size="14.00">gcmdr</text>
</g>
<!-- gcmdr&#45;&gt;api -->
<g id="edge3" class="edge"><title>gcmdr&#45;&gt;api</title>
<path fill="none" stroke="black" d="M190.715,-363.17C205.284,-352.547 225.57,-337.755 241.667,-326.018"/>
<polygon fill="black" stroke="black" points="244.098,-328.577 250.116,-319.857 239.974,-322.921 244.098,-328.577"/>
</g>
<!-- ott -->
<g id="node6" class="node"><title>ott</title>
<ellipse fill="none" stroke="black" cx="166.748" cy="-306" rx="27" ry="18"/>
<text text-anchor="middle" x="166.748" y="-302.3" font-family="Times,serif" font-size="14.00">ott</text>
</g>
<!-- gcmdr&#45;&gt;ott -->
<g id="edge4" class="edge"><title>gcmdr&#45;&gt;ott</title>
<path fill="none" stroke="black" d="M170.512,-359.697C169.961,-351.983 169.299,-342.712 168.685,-334.112"/>
<polygon fill="black" stroke="black" points="172.174,-333.83 167.97,-324.104 165.192,-334.328 172.174,-333.83"/>
</g>
<!-- utility -->
<g id="node8" class="node"><title>utility</title>
<ellipse fill="none" stroke="black" cx="102.748" cy="-18" rx="31.2735" ry="18"/>
<text text-anchor="middle" x="102.748" y="-14.3" font-family="Times,serif" font-size="14.00">utility</text>
</g>
<!-- ott&#45;&gt;utility -->
<g id="edge9" class="edge"><title>ott&#45;&gt;utility</title>
<path fill="none" stroke="black" d="M139.812,-303.183C107.668,-299.404 55.2014,-287.774 30.7484,-252 -14.3964,-185.955 -5.34848,-143.393 30.7484,-72 38.926,-55.8261 54.6227,-43.3803 69.2781,-34.6266"/>
<polygon fill="black" stroke="black" points="71.1648,-37.5819 78.1921,-29.653 67.754,-31.4691 71.1648,-37.5819"/>
</g>
<!-- phylo -->
<g id="node10" class="node"><title>phylo</title>
<ellipse fill="none" stroke="black" cx="166.748" cy="-234" rx="30.3206" ry="18"/>
<text text-anchor="middle" x="166.748" y="-230.3" font-family="Times,serif" font-size="14.00">phylo</text>
</g>
<!-- ott&#45;&gt;phylo -->
<g id="edge8" class="edge"><title>ott&#45;&gt;phylo</title>
<path fill="none" stroke="black" d="M166.748,-287.697C166.748,-279.983 166.748,-270.712 166.748,-262.112"/>
<polygon fill="black" stroke="black" points="170.248,-262.104 166.748,-252.104 163.248,-262.104 170.248,-262.104"/>
</g>
<!-- nexson_syntax&#45;&gt;utility -->
<g id="edge6" class="edge"><title>nexson_syntax&#45;&gt;utility</title>
<path fill="none" stroke="black" d="M102.748,-71.6966C102.748,-63.9827 102.748,-54.7125 102.748,-46.1124"/>
<polygon fill="black" stroke="black" points="106.248,-46.1043 102.748,-36.1043 99.2485,-46.1044 106.248,-46.1043"/>
</g>
<!-- nexson_validation&#45;&gt;nexson_syntax -->
<g id="edge7" class="edge"><title>nexson_validation&#45;&gt;nexson_syntax</title>
<path fill="none" stroke="black" d="M217.489,-145.638C195.576,-135.203 166.432,-121.326 143,-110.168"/>
<polygon fill="black" stroke="black" points="144.208,-106.866 133.674,-105.727 141.198,-113.186 144.208,-106.866"/>
</g>
<!-- phylografter -->
<g id="node11" class="node"><title>phylografter</title>
<ellipse fill="none" stroke="black" cx="358.748" cy="-378" rx="53.4184" ry="18"/>
<text text-anchor="middle" x="358.748" y="-374.3" font-family="Times,serif" font-size="14.00">phylografter</text>
</g>
<!-- phylografter&#45;&gt;api -->
<g id="edge11" class="edge"><title>phylografter&#45;&gt;api</title>
<path fill="none" stroke="black" d="M338.099,-361.116C324.685,-350.798 307.115,-337.282 292.889,-326.339"/>
<polygon fill="black" stroke="black" points="295.017,-323.56 284.957,-320.237 290.749,-329.109 295.017,-323.56"/>
</g>
<!-- string -->
<g id="node12" class="node"><title>string</title>
<ellipse fill="none" stroke="black" cx="214.748" cy="-90" rx="30.3206" ry="18"/>
<text text-anchor="middle" x="214.748" y="-86.3" font-family="Times,serif" font-size="14.00">string</text>
</g>
<!-- string&#45;&gt;utility -->
<g id="edge12" class="edge"><title>string&#45;&gt;utility</title>
<path fill="none" stroke="black" d="M194.725,-76.4854C177.265,-65.5727 151.712,-49.6025 131.969,-37.2628"/>
<polygon fill="black" stroke="black" points="133.691,-34.2119 123.356,-31.8798 129.981,-40.1479 133.691,-34.2119"/>
</g>
<!-- sugar -->
<g id="node13" class="node"><title>sugar</title>
<ellipse fill="none" stroke="black" cx="256.748" cy="-378" rx="29.3479" ry="18"/>
<text text-anchor="middle" x="256.748" y="-374.3" font-family="Times,serif" font-size="14.00">sugar</text>
</g>
<!-- sugar&#45;&gt;api -->
<g id="edge13" class="edge"><title>sugar&#45;&gt;api</title>
<path fill="none" stroke="black" d="M259.411,-360.055C260.623,-352.346 262.087,-343.027 263.448,-334.364"/>
<polygon fill="black" stroke="black" points="266.939,-334.697 265.034,-324.275 260.024,-333.611 266.939,-334.697"/>
</g>
</g>
</svg>
