<?xml version="1.0" encoding="UTF-8" standalone="no"?>
<!DOCTYPE svg PUBLIC "-//W3C//DTD SVG 1.1//EN"
 "http://www.w3.org/Graphics/SVG/1.1/DTD/svg11.dtd">
<!-- Generated by graphviz version 2.36.0 (20140111.2315)
 -->
<!-- Title: peyotldep Pages: 1 -->
<svg width="542pt" height="404pt"
 viewBox="0.00 0.00 542.00 404.00" xmlns="http://www.w3.org/2000/svg" xmlns:xlink="http://www.w3.org/1999/xlink">
<g id="graph0" class="graph" transform="scale(1 1) rotate(0) translate(4 400)">
<title>peyotldep</title>
<polygon fill="white" stroke="none" points="-4,4 -4,-400 538,-400 538,4 -4,4"/>
<!-- api -->
<g id="node1" class="node"><title>api</title>
<ellipse fill="none" stroke="black" cx="261" cy="-306" rx="27" ry="18"/>
<text text-anchor="middle" x="261" y="-302.3" font-family="Times,serif" font-size="14.00">api</text>
</g>
<!-- phylesystem -->
<g id="node2" class="node"><title>phylesystem</title>
<ellipse fill="none" stroke="black" cx="267" cy="-234" rx="55.3682" ry="18"/>
<text text-anchor="middle" x="267" y="-230.3" font-family="Times,serif" font-size="14.00">phylesystem</text>
</g>
<!-- api&#45;&gt;phylesystem -->
<g id="edge1" class="edge"><title>api&#45;&gt;phylesystem</title>
<path fill="none" stroke="black" d="M262.483,-287.697C263.144,-279.983 263.939,-270.712 264.676,-262.112"/>
<polygon fill="black" stroke="black" points="268.167,-262.367 265.534,-252.104 261.193,-261.769 268.167,-262.367"/>
</g>
<!-- nexson_validation -->
<g id="node9" class="node"><title>nexson_validation</title>
<ellipse fill="none" stroke="black" cx="267" cy="-162" rx="75.0904" ry="18"/>
<text text-anchor="middle" x="267" y="-158.3" font-family="Times,serif" font-size="14.00">nexson_validation</text>
</g>
<!-- phylesystem&#45;&gt;nexson_validation -->
<g id="edge10" class="edge"><title>phylesystem&#45;&gt;nexson_validation</title>
<path fill="none" stroke="black" d="M267,-215.697C267,-207.983 267,-198.712 267,-190.112"/>
<polygon fill="black" stroke="black" points="270.5,-190.104 267,-180.104 263.5,-190.104 270.5,-190.104"/>
</g>
<!-- external -->
<g id="node3" class="node"><title>external</title>
<ellipse fill="none" stroke="black" cx="482" cy="-306" rx="38.4949" ry="18"/>
<text text-anchor="middle" x="482" y="-302.3" font-family="Times,serif" font-size="14.00">external</text>
</g>
<!-- manip -->
<g id="node4" class="node"><title>manip</title>
<ellipse fill="none" stroke="black" cx="469" cy="-162" rx="33.2209" ry="18"/>
<text text-anchor="middle" x="469" y="-158.3" font-family="Times,serif" font-size="14.00">manip</text>
</g>
<!-- external&#45;&gt;manip -->
<g id="edge2" class="edge"><title>external&#45;&gt;manip</title>
<path fill="none" stroke="black" d="M480.432,-287.871C478.216,-263.67 474.146,-219.211 471.508,-190.393"/>
<polygon fill="black" stroke="black" points="474.971,-189.829 470.574,-180.189 468,-190.467 474.971,-189.829"/>
</g>
<!-- nexson_syntax -->
<g id="node7" class="node"><title>nexson_syntax</title>
<ellipse fill="none" stroke="black" cx="370" cy="-90" rx="63.0666" ry="18"/>
<text text-anchor="middle" x="370" y="-86.3" font-family="Times,serif" font-size="14.00">nexson_syntax</text>
</g>
<!-- manip&#45;&gt;nexson_syntax -->
<g id="edge5" class="edge"><title>manip&#45;&gt;nexson_syntax</title>
<path fill="none" stroke="black" d="M449.441,-147.17C435.652,-137.421 416.899,-124.161 401.076,-112.973"/>
<polygon fill="black" stroke="black" points="402.823,-109.921 392.637,-107.006 398.781,-115.637 402.823,-109.921"/>
</g>
<!-- gcmdr -->
<g id="node5" class="node"><title>gcmdr</title>
<ellipse fill="none" stroke="black" cx="33" cy="-378" rx="33.1991" ry="18"/>
<text text-anchor="middle" x="33" y="-374.3" font-family="Times,serif" font-size="14.00">gcmdr</text>
</g>
<!-- gcmdr&#45;&gt;api -->
<g id="edge3" class="edge"><title>gcmdr&#45;&gt;api</title>
<path fill="none" stroke="black" d="M58.7704,-366.34C64.4102,-364.14 70.3759,-361.912 76,-360 127.755,-342.403 188.924,-325.649 226.332,-315.85"/>
<polygon fill="black" stroke="black" points="227.429,-319.181 236.225,-313.275 225.666,-312.406 227.429,-319.181"/>
</g>
<!-- ott -->
<g id="node6" class="node"><title>ott</title>
<ellipse fill="none" stroke="black" cx="33" cy="-306" rx="27" ry="18"/>
<text text-anchor="middle" x="33" y="-302.3" font-family="Times,serif" font-size="14.00">ott</text>
</g>
<!-- gcmdr&#45;&gt;ott -->
<g id="edge4" class="edge"><title>gcmdr&#45;&gt;ott</title>
<path fill="none" stroke="black" d="M33,-359.697C33,-351.983 33,-342.712 33,-334.112"/>
<polygon fill="black" stroke="black" points="36.5001,-334.104 33,-324.104 29.5001,-334.104 36.5001,-334.104"/>
</g>
<!-- utility -->
<g id="node8" class="node"><title>utility</title>
<ellipse fill="none" stroke="black" cx="178" cy="-18" rx="31.2735" ry="18"/>
<text text-anchor="middle" x="178" y="-14.3" font-family="Times,serif" font-size="14.00">utility</text>
</g>
<!-- ott&#45;&gt;utility -->
<g id="edge9" class="edge"><title>ott&#45;&gt;utility</title>
<path fill="none" stroke="black" d="M34.5149,-287.795C36.528,-269.511 40.9436,-239.988 50,-216 76.0065,-147.114 128.987,-77.4177 157.965,-42.3096"/>
<polygon fill="black" stroke="black" points="160.721,-44.4697 164.446,-34.5511 155.349,-39.9823 160.721,-44.4697"/>
</g>
<!-- phylo -->
<g id="node10" class="node"><title>phylo</title>
<ellipse fill="none" stroke="black" cx="90" cy="-234" rx="30.3206" ry="18"/>
<text text-anchor="middle" x="90" y="-230.3" font-family="Times,serif" font-size="14.00">phylo</text>
</g>
<!-- ott&#45;&gt;phylo -->
<g id="edge8" class="edge"><title>ott&#45;&gt;phylo</title>
<path fill="none" stroke="black" d="M45.3682,-289.811C52.8089,-280.673 62.437,-268.849 70.845,-258.524"/>
<polygon fill="black" stroke="black" points="73.661,-260.608 77.2613,-250.644 68.233,-256.188 73.661,-260.608"/>
</g>
<!-- nexson_syntax&#45;&gt;utility -->
<g id="edge6" class="edge"><title>nexson_syntax&#45;&gt;utility</title>
<path fill="none" stroke="black" d="M332.525,-75.3371C297.959,-62.735 247.024,-44.165 213.2,-31.8335"/>
<polygon fill="black" stroke="black" points="214.31,-28.5129 203.717,-28.3758 211.913,-35.0894 214.31,-28.5129"/>
</g>
<!-- nexson_validation&#45;&gt;nexson_syntax -->
<g id="edge7" class="edge"><title>nexson_validation&#45;&gt;nexson_syntax</title>
<path fill="none" stroke="black" d="M290.889,-144.765C304.898,-135.244 322.778,-123.093 337.994,-112.752"/>
<polygon fill="black" stroke="black" points="340.292,-115.422 346.596,-106.906 336.357,-109.632 340.292,-115.422"/>
</g>
<!-- phylografter -->
<g id="node11" class="node"><title>phylografter</title>
<ellipse fill="none" stroke="black" cx="357" cy="-378" rx="53.4184" ry="18"/>
<text text-anchor="middle" x="357" y="-374.3" font-family="Times,serif" font-size="14.00">phylografter</text>
</g>
<!-- phylografter&#45;&gt;api -->
<g id="edge11" class="edge"><title>phylografter&#45;&gt;api</title>
<path fill="none" stroke="black" d="M335.694,-361.465C321.38,-351.027 302.421,-337.203 287.186,-326.094"/>
<polygon fill="black" stroke="black" points="288.851,-322.977 278.709,-319.913 284.727,-328.633 288.851,-322.977"/>
</g>
<!-- string -->
<g id="node12" class="node"><title>string</title>
<ellipse fill="none" stroke="black" cx="208" cy="-90" rx="30.3206" ry="18"/>
<text text-anchor="middle" x="208" y="-86.3" font-family="Times,serif" font-size="14.00">string</text>
</g>
<!-- string&#45;&gt;utility -->
<g id="edge12" class="edge"><title>string&#45;&gt;utility</title>
<path fill="none" stroke="black" d="M200.89,-72.411C197.429,-64.3352 193.185,-54.4312 189.295,-45.3547"/>
<polygon fill="black" stroke="black" points="192.423,-43.7689 185.267,-35.9562 185.989,-46.5264 192.423,-43.7689"/>
</g>
<!-- sugar -->
<g id="node13" class="node"><title>sugar</title>
<ellipse fill="none" stroke="black" cx="255" cy="-378" rx="29.3479" ry="18"/>
<text text-anchor="middle" x="255" y="-374.3" font-family="Times,serif" font-size="14.00">sugar</text>
</g>
<!-- sugar&#45;&gt;api -->
<g id="edge13" class="edge"><title>sugar&#45;&gt;api</title>
<path fill="none" stroke="black" d="M256.483,-359.697C257.144,-351.983 257.939,-342.712 258.676,-334.112"/>
<polygon fill="black" stroke="black" points="262.167,-334.367 259.534,-324.104 255.193,-333.769 262.167,-334.367"/>
</g>
<!-- opentree&#45;testrunner -->
<g id="node14" class="node"><title>opentree&#45;testrunner</title>
<polygon fill="#bbbbff" stroke="#bbbbff" points="207,-396 85,-396 85,-360 207,-360 207,-396"/>
<text text-anchor="middle" x="146" y="-374.3" font-family="Times,serif" font-size="14.00">opentree&#45;testrunner</text>
</g>
<!-- opentree&#45;testrunner&#45;&gt;api -->
<g id="edge14" class="edge"><title>opentree&#45;testrunner&#45;&gt;api</title>
<path fill="none" stroke="blue" d="M174.132,-359.876C192.026,-348.984 215.106,-334.936 232.978,-324.057"/>
<polygon fill="blue" stroke="blue" points="235.072,-326.88 241.794,-318.691 231.432,-320.9 235.072,-326.88"/>
</g>
<!-- opentree&#45;testrunner&#45;&gt;utility -->
<g id="edge15" class="edge"><title>opentree&#45;testrunner&#45;&gt;utility</title>
<path fill="none" stroke="blue" d="M146.593,-359.953C147.467,-333.297 149,-280.125 149,-235 149,-235 149,-235 149,-161 149,-119.99 160.755,-73.6417 169.297,-45.3748"/>
<polygon fill="blue" stroke="blue" points="172.64,-46.4105 172.271,-35.8221 165.956,-44.3297 172.64,-46.4105"/>
</g>
<!-- phylesystem&#45;api -->
<g id="node15" class="node"><title>phylesystem&#45;api</title>
<polygon fill="#bbbbff" stroke="#bbbbff" points="534.5,-396 429.5,-396 429.5,-360 534.5,-360 534.5,-396"/>
<text text-anchor="middle" x="482" y="-374.3" font-family="Times,serif" font-size="14.00">phylesystem&#45;api</text>
</g>
<!-- phylesystem&#45;api&#45;&gt;api -->
<g id="edge16" class="edge"><title>phylesystem&#45;api&#45;&gt;api</title>
<path fill="none" stroke="blue" d="M429.422,-360.69C396.042,-350.291 351.948,-336.473 313,-324 307.089,-322.107 300.808,-320.073 294.731,-318.093"/>
<polygon fill="blue" stroke="blue" points="295.389,-314.626 284.797,-314.846 293.215,-321.28 295.389,-314.626"/>
</g>
<!-- phylesystem&#45;api&#45;&gt;phylesystem -->
<g id="edge19" class="edge"><title>phylesystem&#45;api&#45;&gt;phylesystem</title>
<path fill="none" stroke="blue" d="M429.43,-360.1C405.895,-351.252 378.453,-339.092 356,-324 329.182,-305.974 303.65,-279.077 286.866,-259.572"/>
<polygon fill="blue" stroke="blue" points="289.356,-257.096 280.231,-251.713 284.008,-261.611 289.356,-257.096"/>
</g>
<!-- phylesystem&#45;api&#45;&gt;external -->
<g id="edge17" class="edge"><title>phylesystem&#45;api&#45;&gt;external</title>
<path fill="none" stroke="blue" d="M482,-359.697C482,-351.983 482,-342.712 482,-334.112"/>
<polygon fill="blue" stroke="blue" points="485.5,-334.104 482,-324.104 478.5,-334.104 485.5,-334.104"/>
</g>
<!-- phylesystem&#45;api&#45;&gt;nexson_syntax -->
<g id="edge18" class="edge"><title>phylesystem&#45;api&#45;&gt;nexson_syntax</title>
<path fill="none" stroke="blue" d="M463.516,-359.634C441.107,-337.231 404.429,-295.891 389,-252 373.234,-207.151 370.002,-151.397 369.627,-118.652"/>
<polygon fill="blue" stroke="blue" points="373.126,-118.467 369.595,-108.478 366.126,-118.489 373.126,-118.467"/>
</g>
<!-- curator -->
<g id="node16" class="node"><title>curator</title>
<polygon fill="#bbbbff" stroke="#bbbbff" points="453.25,-252 398.75,-252 398.75,-216 453.25,-216 453.25,-252"/>
<text text-anchor="middle" x="426" y="-230.3" font-family="Times,serif" font-size="14.00">curator</text>
</g>
<!-- curator&#45;&gt;manip -->
<g id="edge20" class="edge"><title>curator&#45;&gt;manip</title>
<path fill="none" stroke="blue" d="M436.629,-215.697C441.703,-207.437 447.872,-197.394 453.459,-188.299"/>
<polygon fill="blue" stroke="blue" points="456.537,-189.975 458.789,-179.622 450.573,-186.311 456.537,-189.975"/>
</g>
<!-- curator&#45;&gt;nexson_syntax -->
<g id="edge21" class="edge"><title>curator&#45;&gt;nexson_syntax</title>
<path fill="none" stroke="blue" d="M419.245,-215.871C409.617,-191.457 391.858,-146.426 380.504,-117.635"/>
<polygon fill="blue" stroke="blue" points="383.704,-116.208 376.779,-108.189 377.192,-118.776 383.704,-116.208"/>
</g>
</g>
</svg>
