<?xml version="1.0" encoding="UTF-8" standalone="no"?>
<!DOCTYPE svg PUBLIC "-//W3C//DTD SVG 1.1//EN"
 "http://www.w3.org/Graphics/SVG/1.1/DTD/svg11.dtd">
<!-- Generated by graphviz version 2.36.0 (20140111.2315)
 -->
<!-- Title: peyotldep Pages: 1 -->
<svg width="746pt" height="404pt"
 viewBox="0.00 0.00 746.00 404.00" xmlns="http://www.w3.org/2000/svg" xmlns:xlink="http://www.w3.org/1999/xlink">
<g id="graph0" class="graph" transform="scale(1 1) rotate(0) translate(4 400)">
<title>peyotldep</title>
<polygon fill="white" stroke="none" points="-4,4 -4,-400 742,-400 742,4 -4,4"/>
<!-- api -->
<g id="node1" class="node"><title>api</title>
<ellipse fill="none" stroke="black" cx="375" cy="-306" rx="27" ry="18"/>
<text text-anchor="middle" x="375" y="-302.3" font-family="Times,serif" font-size="14.00">api</text>
</g>
<!-- nexson_syntax -->
<g id="node2" class="node"><title>nexson_syntax</title>
<ellipse fill="none" stroke="black" cx="302" cy="-90" rx="63.0666" ry="18"/>
<text text-anchor="middle" x="302" y="-86.3" font-family="Times,serif" font-size="14.00">nexson_syntax</text>
</g>
<!-- api&#45;&gt;nexson_syntax -->
<g id="edge1" class="edge"><title>api&#45;&gt;nexson_syntax</title>
<path fill="none" stroke="black" d="M369.272,-288.208C356.643,-251.186 326.321,-162.297 311.075,-117.604"/>
<polygon fill="black" stroke="black" points="314.344,-116.345 307.803,-108.01 307.719,-118.605 314.344,-116.345"/>
</g>
<!-- phylesystem -->
<g id="node3" class="node"><title>phylesystem</title>
<ellipse fill="none" stroke="black" cx="497" cy="-234" rx="55.3682" ry="18"/>
<text text-anchor="middle" x="497" y="-230.3" font-family="Times,serif" font-size="14.00">phylesystem</text>
</g>
<!-- api&#45;&gt;phylesystem -->
<g id="edge2" class="edge"><title>api&#45;&gt;phylesystem</title>
<path fill="none" stroke="black" d="M394.873,-293.597C412.951,-283.225 440.051,-267.676 461.792,-255.201"/>
<polygon fill="black" stroke="black" points="463.808,-258.08 470.74,-250.067 460.325,-252.008 463.808,-258.08"/>
</g>
<!-- utility -->
<g id="node4" class="node"><title>utility</title>
<ellipse fill="none" stroke="black" cx="404" cy="-18" rx="31.2735" ry="18"/>
<text text-anchor="middle" x="404" y="-14.3" font-family="Times,serif" font-size="14.00">utility</text>
</g>
<!-- api&#45;&gt;utility -->
<g id="edge3" class="edge"><title>api&#45;&gt;utility</title>
<path fill="none" stroke="black" d="M376.727,-287.966C381.571,-240.192 395.318,-104.623 401.235,-46.2658"/>
<polygon fill="black" stroke="black" points="404.718,-46.6086 402.245,-36.3065 397.754,-45.9023 404.718,-46.6086"/>
</g>
<!-- nexson_syntax&#45;&gt;utility -->
<g id="edge12" class="edge"><title>nexson_syntax&#45;&gt;utility</title>
<path fill="none" stroke="black" d="M325.145,-73.1159C340.321,-62.7012 360.243,-49.029 376.266,-38.033"/>
<polygon fill="black" stroke="black" points="378.447,-40.7814 384.712,-32.2372 374.486,-35.0098 378.447,-40.7814"/>
</g>
<!-- phylesystem&#45;&gt;nexson_syntax -->
<g id="edge17" class="edge"><title>phylesystem&#45;&gt;nexson_syntax</title>
<path fill="none" stroke="black" d="M474.929,-217.303C460.19,-206.793 440.393,-192.624 423,-180 391.851,-157.391 356.398,-131.268 331.958,-113.198"/>
<polygon fill="black" stroke="black" points="333.919,-110.295 323.798,-107.161 329.756,-115.922 333.919,-110.295"/>
</g>
<!-- phylesystem&#45;&gt;utility -->
<g id="edge19" class="edge"><title>phylesystem&#45;&gt;utility</title>
<path fill="none" stroke="black" d="M536.856,-221.258C556.862,-213.121 579.282,-200.059 591,-180 599.071,-166.185 598.541,-158.111 591,-144 559.259,-84.6037 485.419,-48.506 440.606,-31.2713"/>
<polygon fill="black" stroke="black" points="441.56,-27.8918 430.967,-27.6827 439.118,-34.4519 441.56,-27.8918"/>
</g>
<!-- nexson_validation -->
<g id="node9" class="node"><title>nexson_validation</title>
<ellipse fill="none" stroke="black" cx="507" cy="-162" rx="75.0904" ry="18"/>
<text text-anchor="middle" x="507" y="-158.3" font-family="Times,serif" font-size="14.00">nexson_validation</text>
</g>
<!-- phylesystem&#45;&gt;nexson_validation -->
<g id="edge18" class="edge"><title>phylesystem&#45;&gt;nexson_validation</title>
<path fill="none" stroke="black" d="M499.472,-215.697C500.574,-207.983 501.898,-198.712 503.127,-190.112"/>
<polygon fill="black" stroke="black" points="506.607,-190.499 504.557,-180.104 499.677,-189.509 506.607,-190.499"/>
</g>
<!-- external -->
<g id="node5" class="node"><title>external</title>
<ellipse fill="none" stroke="black" cx="105" cy="-234" rx="38.4949" ry="18"/>
<text text-anchor="middle" x="105" y="-230.3" font-family="Times,serif" font-size="14.00">external</text>
</g>
<!-- external&#45;&gt;nexson_syntax -->
<g id="edge5" class="edge"><title>external&#45;&gt;nexson_syntax</title>
<path fill="none" stroke="black" d="M129.743,-219.877C148.215,-209.738 173.815,-194.953 195,-180 215.363,-165.627 218.846,-159.949 238,-144 249.954,-134.046 263.193,-123.075 274.512,-113.709"/>
<polygon fill="black" stroke="black" points="276.895,-116.28 282.37,-107.21 272.433,-110.886 276.895,-116.28"/>
</g>
<!-- manip -->
<g id="node6" class="node"><title>manip</title>
<ellipse fill="none" stroke="black" cx="153" cy="-162" rx="33.2209" ry="18"/>
<text text-anchor="middle" x="153" y="-158.3" font-family="Times,serif" font-size="14.00">manip</text>
</g>
<!-- external&#45;&gt;manip -->
<g id="edge4" class="edge"><title>external&#45;&gt;manip</title>
<path fill="none" stroke="black" d="M116.133,-216.765C122.07,-208.106 129.498,-197.273 136.129,-187.604"/>
<polygon fill="black" stroke="black" points="139.159,-189.374 141.928,-179.147 133.386,-185.415 139.159,-189.374"/>
</g>
<!-- manip&#45;&gt;nexson_syntax -->
<g id="edge10" class="edge"><title>manip&#45;&gt;nexson_syntax</title>
<path fill="none" stroke="black" d="M177.271,-149.597C200.065,-138.889 234.6,-122.664 261.556,-110.001"/>
<polygon fill="black" stroke="black" points="263.18,-113.105 270.743,-105.685 260.204,-106.769 263.18,-113.105"/>
</g>
<!-- manip&#45;&gt;utility -->
<g id="edge11" class="edge"><title>manip&#45;&gt;utility</title>
<path fill="none" stroke="black" d="M162.915,-144.73C175.908,-124.749 200.54,-91.1593 230,-72 271.136,-45.2474 326.442,-31.4447 363.56,-24.7277"/>
<polygon fill="black" stroke="black" points="364.257,-28.1593 373.52,-23.0162 363.072,-21.2604 364.257,-28.1593"/>
</g>
<!-- gcmdr -->
<g id="node7" class="node"><title>gcmdr</title>
<ellipse fill="none" stroke="black" cx="217" cy="-378" rx="33.1991" ry="18"/>
<text text-anchor="middle" x="217" y="-374.3" font-family="Times,serif" font-size="14.00">gcmdr</text>
</g>
<!-- gcmdr&#45;&gt;api -->
<g id="edge6" class="edge"><title>gcmdr&#45;&gt;api</title>
<path fill="none" stroke="black" d="M242.036,-365.908C269.554,-353.717 313.807,-334.111 343.622,-320.902"/>
<polygon fill="black" stroke="black" points="345.409,-323.938 353.135,-316.687 342.574,-317.538 345.409,-323.938"/>
</g>
<!-- gcmdr&#45;&gt;nexson_syntax -->
<g id="edge7" class="edge"><title>gcmdr&#45;&gt;nexson_syntax</title>
<path fill="none" stroke="black" d="M220.867,-359.794C231.439,-313.092 261.036,-184.736 276,-144 279.287,-135.053 283.617,-125.612 287.798,-117.217"/>
<polygon fill="black" stroke="black" points="290.94,-118.759 292.393,-108.264 284.713,-115.563 290.94,-118.759"/>
</g>
<!-- gcmdr&#45;&gt;utility -->
<g id="edge9" class="edge"><title>gcmdr&#45;&gt;utility</title>
<path fill="none" stroke="black" d="M185.446,-371.514C125.262,-359.043 0,-322.57 0,-235 0,-235 0,-235 0,-161 0,-92.4388 62.8959,-98.8051 126,-72 205.446,-38.2534 306.771,-25.8643 362.534,-21.4121"/>
<polygon fill="black" stroke="black" points="363.02,-24.8855 372.73,-20.6465 362.496,-17.9052 363.02,-24.8855"/>
</g>
<!-- ott -->
<g id="node8" class="node"><title>ott</title>
<ellipse fill="none" stroke="black" cx="193" cy="-306" rx="27" ry="18"/>
<text text-anchor="middle" x="193" y="-302.3" font-family="Times,serif" font-size="14.00">ott</text>
</g>
<!-- gcmdr&#45;&gt;ott -->
<g id="edge8" class="edge"><title>gcmdr&#45;&gt;ott</title>
<path fill="none" stroke="black" d="M211.19,-360.055C208.449,-352.059 205.113,-342.331 202.051,-333.4"/>
<polygon fill="black" stroke="black" points="205.31,-332.113 198.756,-323.789 198.689,-334.384 205.31,-332.113"/>
</g>
<!-- ott&#45;&gt;utility -->
<g id="edge16" class="edge"><title>ott&#45;&gt;utility</title>
<path fill="none" stroke="black" d="M166.064,-303.183C133.919,-299.404 81.453,-287.774 57,-252 47.971,-238.791 51.9404,-231.179 57,-216 84.3602,-133.919 111.915,-113.194 188,-72 244.072,-41.6412 317.684,-28.3954 362.874,-22.8172"/>
<polygon fill="black" stroke="black" points="363.368,-26.2834 372.895,-21.6488 362.557,-19.3305 363.368,-26.2834"/>
</g>
<!-- phylo -->
<g id="node10" class="node"><title>phylo</title>
<ellipse fill="none" stroke="black" cx="193" cy="-234" rx="30.3206" ry="18"/>
<text text-anchor="middle" x="193" y="-230.3" font-family="Times,serif" font-size="14.00">phylo</text>
</g>
<!-- ott&#45;&gt;phylo -->
<g id="edge15" class="edge"><title>ott&#45;&gt;phylo</title>
<path fill="none" stroke="black" d="M193,-287.697C193,-279.983 193,-270.712 193,-262.112"/>
<polygon fill="black" stroke="black" points="196.5,-262.104 193,-252.104 189.5,-262.104 196.5,-262.104"/>
</g>
<!-- nexson_validation&#45;&gt;nexson_syntax -->
<g id="edge13" class="edge"><title>nexson_validation&#45;&gt;nexson_syntax</title>
<path fill="none" stroke="black" d="M465.515,-146.834C432.257,-135.478 385.523,-119.52 350.53,-107.571"/>
<polygon fill="black" stroke="black" points="351.587,-104.234 340.992,-104.314 349.325,-110.858 351.587,-104.234"/>
</g>
<!-- nexson_validation&#45;&gt;utility -->
<g id="edge14" class="edge"><title>nexson_validation&#45;&gt;utility</title>
<path fill="none" stroke="black" d="M494.78,-144.153C476.622,-119.12 442.424,-71.9735 421.579,-43.2358"/>
<polygon fill="black" stroke="black" points="424.276,-40.9928 415.572,-34.953 418.61,-45.1029 424.276,-40.9928"/>
</g>
<!-- phylografter -->
<g id="node11" class="node"><title>phylografter</title>
<ellipse fill="none" stroke="black" cx="426" cy="-378" rx="53.4184" ry="18"/>
<text text-anchor="middle" x="426" y="-374.3" font-family="Times,serif" font-size="14.00">phylografter</text>
</g>
<!-- phylografter&#45;&gt;api -->
<g id="edge20" class="edge"><title>phylografter&#45;&gt;api</title>
<path fill="none" stroke="black" d="M413.914,-360.411C407.444,-351.53 399.363,-340.439 392.244,-330.668"/>
<polygon fill="black" stroke="black" points="395.018,-328.532 386.301,-322.511 389.361,-332.654 395.018,-328.532"/>
</g>
<!-- phylografter&#45;&gt;nexson_syntax -->
<g id="edge21" class="edge"><title>phylografter&#45;&gt;nexson_syntax</title>
<path fill="none" stroke="black" d="M391.08,-364.199C372.678,-355.639 351.409,-342.51 339,-324 296.244,-260.221 296.267,-164.902 299.343,-118.44"/>
<polygon fill="black" stroke="black" points="302.85,-118.486 300.121,-108.249 295.87,-117.953 302.85,-118.486"/>
</g>
<!-- phylografter&#45;&gt;utility -->
<g id="edge22" class="edge"><title>phylografter&#45;&gt;utility</title>
<path fill="none" stroke="black" d="M472.268,-368.841C537.33,-354.405 648,-317.696 648,-235 648,-235 648,-235 648,-161 648,-68.2276 514.607,-35.0142 445.079,-24.0035"/>
<polygon fill="black" stroke="black" points="445.311,-20.4993 434.903,-22.4783 444.273,-27.422 445.311,-20.4993"/>
</g>
<!-- string -->
<g id="node12" class="node"><title>string</title>
<ellipse fill="none" stroke="black" cx="707" cy="-90" rx="30.3206" ry="18"/>
<text text-anchor="middle" x="707" y="-86.3" font-family="Times,serif" font-size="14.00">string</text>
</g>
<!-- string&#45;&gt;utility -->
<g id="edge23" class="edge"><title>string&#45;&gt;utility</title>
<path fill="none" stroke="black" d="M682.481,-78.9327C675.9,-76.4527 668.738,-73.9515 662,-72 586.187,-50.0431 495.317,-33.6005 444.161,-25.2182"/>
<polygon fill="black" stroke="black" points="444.602,-21.7441 434.171,-23.6013 443.483,-28.6542 444.602,-21.7441"/>
</g>
<!-- sugar -->
<g id="node13" class="node"><title>sugar</title>
<ellipse fill="none" stroke="black" cx="324" cy="-378" rx="29.3479" ry="18"/>
<text text-anchor="middle" x="324" y="-374.3" font-family="Times,serif" font-size="14.00">sugar</text>
</g>
<!-- sugar&#45;&gt;api -->
<g id="edge24" class="edge"><title>sugar&#45;&gt;api</title>
<path fill="none" stroke="black" d="M335.573,-361.116C342.028,-352.255 350.201,-341.037 357.43,-331.115"/>
<polygon fill="black" stroke="black" points="360.413,-332.965 363.473,-322.821 354.756,-328.843 360.413,-332.965"/>
</g>
</g>
</svg>
